<svg width="1411" height="1142" viewBox="0 0 1411 1142" fill="none" xmlns="http://www.w3.org/2000/svg">
<g clip-path="url(#clip0)">
<path d="M644.016 521.393L-180.005 73.4624L-82.8305 -71.3526L644.016 521.393Z" fill="url(#paint0_linear)"/>
<path d="M724.394 507.037L761.964 -75.2242L859.642 -60.5435L724.394 507.037Z" fill="url(#paint1_linear)"/>
<path d="M679.046 511.401L185.039 -65.4978L348.841 -172.572L679.046 511.401Z" fill="url(#paint2_linear)"/>
<path d="M746.903 509.779L1195.56 -257.204L1411.9 -79.5749L746.903 509.779Z" fill="url(#paint3_linear)"/>
<path d="M701.238 507.318L549.744 -137.815L647.752 -153.201L701.238 507.318Z" fill="url(#paint4_linear)"/>
<path d="M753.396 589.527L1801.08 1063.66L1620.26 1345.17L753.396 589.527Z" fill="url(#paint5_linear)"/>
<path d="M698.265 595.626L601.556 1244.66L732.334 1250.94L698.265 595.626Z" fill="url(#paint6_linear)"/>
<path d="M724.084 593.85L1022.31 1361.43L1225.11 1247.37L724.084 593.85Z" fill="url(#paint7_linear)"/>
<path d="M750.835 571.198L1798.48 530.459L1786.64 733.452L750.835 571.198Z" fill="url(#paint8_linear)"/>
<path d="M676.36 592.253L115.109 1585.62L-81 1445.59L676.36 592.253Z" fill="url(#paint9_linear)"/>
<path d="M641.087 580.958L-110.868 1061.94L-157.073 980.605L641.087 580.958Z" fill="url(#paint10_linear)"/>
<path d="M751.391 532.476L1710.74 66.5728L1789.36 287.451L751.391 532.476Z" fill="url(#paint11_linear)"/>
<path d="M628.892 544.09L-506.277 602.475L-498.807 401.564L628.892 544.09Z" fill="url(#paint12_linear)"/>
</g>
<defs>
<linearGradient id="paint0_linear" x1="644.016" y1="521.393" x2="-389.896" y2="-172.391" gradientUnits="userSpaceOnUse">
<stop stop-color="#60CDD3"/>
<stop offset="0.0260417" stop-color="#60CDD3"/>
<stop offset="0.614583" stop-color="#60CDD3" stop-opacity="0"/>
</linearGradient>
<linearGradient id="paint1_linear" x1="724.394" y1="507.037" x2="839.606" y2="-259.524" gradientUnits="userSpaceOnUse">
<stop stop-color="#60CDD3"/>
<stop offset="1" stop-color="#60CDD3" stop-opacity="0"/>
</linearGradient>
<linearGradient id="paint2_linear" x1="679.046" y1="511.401" x2="129.571" y2="-329.18" gradientUnits="userSpaceOnUse">
<stop stop-color="#60CDD3"/>
<stop offset="1" stop-color="#C4C4C4" stop-opacity="0"/>
</linearGradient>
<linearGradient id="paint3_linear" x1="746.903" y1="509.779" x2="1489.34" y2="-394.446" gradientUnits="userSpaceOnUse">
<stop stop-color="#60CDD3"/>
<stop offset="1" stop-color="#C4C4C4" stop-opacity="0"/>
</linearGradient>
<linearGradient id="paint4_linear" x1="701.238" y1="507.318" x2="564.585" y2="-363.117" gradientUnits="userSpaceOnUse">
<stop stop-color="#60CDD3"/>
<stop offset="1" stop-color="#C4C4C4" stop-opacity="0"/>
</linearGradient>
<linearGradient id="paint5_linear" x1="753.396" y1="589.527" x2="2029.77" y2="1409.38" gradientUnits="userSpaceOnUse">
<stop stop-color="#60CDD3"/>
<stop offset="1" stop-color="#C4C4C4" stop-opacity="0"/>
</linearGradient>
<linearGradient id="paint6_linear" x1="698.265" y1="595.626" x2="656.505" y2="1465.19" gradientUnits="userSpaceOnUse">
<stop stop-color="#60CDD3"/>
<stop offset="1" stop-color="#C4C4C4" stop-opacity="0"/>
</linearGradient>
<linearGradient id="paint7_linear" x1="724.084" y1="593.85" x2="1256.92" y2="1541.25" gradientUnits="userSpaceOnUse">
<stop stop-color="#60CDD3"/>
<stop offset="1" stop-color="#C4C4C4" stop-opacity="0"/>
</linearGradient>
<linearGradient id="paint8_linear" x1="750.835" y1="571.198" x2="2139.8" y2="652.208" gradientUnits="userSpaceOnUse">
<stop stop-color="#60CDD3"/>
<stop offset="1" stop-color="#C4C4C4" stop-opacity="0"/>
</linearGradient>
<linearGradient id="paint9_linear" x1="698.297" y1="571.845" x2="-180.776" y2="1802.99" gradientUnits="userSpaceOnUse">
<stop stop-color="#60CDD3"/>
<stop offset="1" stop-color="#C4C4C4" stop-opacity="0"/>
</linearGradient>
<linearGradient id="paint10_linear" x1="641.087" y1="580.958" x2="-392.323" y2="1168.04" gradientUnits="userSpaceOnUse">
<stop stop-color="#60CDD3"/>
<stop offset="1" stop-color="#C4C4C4" stop-opacity="0"/>
</linearGradient>
<linearGradient id="paint11_linear" x1="751.391" y1="532.476" x2="2082.93" y2="58.5244" gradientUnits="userSpaceOnUse">
<stop stop-color="#60CDD3"/>
<stop offset="1" stop-color="#C4C4C4" stop-opacity="0"/>
</linearGradient>
<linearGradient id="paint12_linear" x1="628.892" y1="544.09" x2="-879.687" y2="487.996" gradientUnits="userSpaceOnUse">
<stop stop-color="#60CDD3"/>
<stop offset="1" stop-color="#C4C4C4" stop-opacity="0"/>
</linearGradient>
<clipPath id="clip0">
<rect width="1411" height="1142" fill="white"/>
</clipPath>
</defs>
</svg>
